<?xml version="1.0" ?><svg enable-background="new 0 0 64 64" height="64px" id="Layer_1" version="1.1" viewBox="0 0 64 64" width="64px" xml:space="preserve" xmlns="http://www.w3.org/2000/svg" xmlns:xlink="http://www.w3.org/1999/xlink"><circle cx="32" cy="32" fill="#E0E0D1" r="32"/><path d="M44,16H32h-2l-2.232,2.232c-0.976-0.977-2.56-0.977-3.535,0L22.5,19.965  c-1.723-1.572-4.278-3.075-8.066-3.917c-1.079-0.242-2.146,0.44-2.386,1.518c-0.24,1.079,0.44,2.147,1.518,2.386  c2.919,0.649,4.834,1.744,6.099,2.848l-1.433,1.433c-0.977,0.976-0.977,2.559,0,3.535L16,30v7v11c0,2.209,1.791,4,4,4h17h11  c2.209,0,4-1.791,4-4V31v-7C52,21.791,46.209,16,44,16z M48,24.449V29l-9-9h4.551C44.797,20.651,47.349,23.203,48,24.449z" fill="#231F20" opacity="0.2"/><g><path d="M43.551,18c1.246,0.651,3.798,3.203,4.449,4.449V46H20V29.657L31.657,18H43.551 M44,14H30L16,28v18   c0,2.209,1.791,4,4,4h28c2.209,0,4-1.791,4-4V22C52,19.791,46.209,14,44,14L44,14z" fill="#C75C5C"/></g><g><path d="M20,48.5c-1.378,0-2.5-1.122-2.5-2.5V35.666L36.948,18.07L48.379,29.5H49c0.584,0,1.091-0.069,1.5-0.146V46   c0,1.378-1.122,2.5-2.5,2.5H20z" fill="#C75C5C"/><path d="M36.897,20.139l9.982,9.982L47.757,31H49v15c0,0.551-0.449,1-1,1H20c-0.551,0-1-0.449-1-1v-9.669   L36.897,20.139 M37,16L16,35v11c0,2.209,1.791,4,4,4h28c2.209,0,4-1.791,4-4V29c0-1.055-0.18-1.33-0.609-1.33   C50.922,27.67,50.154,28,49,28L37,16L37,16z" fill="#C75C5C"/></g><path d="M24,24c0,0-1-6-10-8" fill="none" stroke="#4F5D73" stroke-linecap="round" stroke-miterlimit="10" stroke-width="4"/><line fill="none" stroke="#4F5D73" stroke-linecap="round" stroke-miterlimit="10" stroke-width="5" x1="20" x2="26" y1="24" y2="18"/><g><path d="M20,48.5c-1.378,0-2.5-1.122-2.5-2.5V28.621L30.621,15.5H32c1.378,0,2.5,1.122,2.5,2.5v0.133l4.997,27.985   C39.436,47.442,38.339,48.5,37,48.5H20z" fill="#C75C5C"/><path d="M32,17c0.551,0,1,0.449,1,1v0.266l0.047,0.262l4.938,27.65C37.9,46.645,37.491,47,37,47H20   c-0.551,0-1-0.449-1-1V29.243L31.243,17H32 M32,14h-2L16,28v18c0,2.209,1.791,4,4,4h17c2.209,0,4-1.791,4-4l-5-28   C36,15.791,34.209,14,32,14L32,14z" fill="#C75C5C"/></g></svg>