<?xml version="1.0" encoding="utf-8"?>
<svg viewBox="163.628 201.184 64 64" xmlns="http://www.w3.org/2000/svg">
  <circle cx="195.628" cy="233.184" fill="#E0E0D1" r="32"/>
  <path fill="#b0c4da" d="M 186.002 221.842 L 199.722 234.351 L 197.761 236.137 L 184.043 223.629 L 186.002 221.842 Z" style=""/>
  <path fill="#99b5ce" d="M 198.381 233.228 L 197.272 234.238 L 184.799 222.867 L 183.968 223.624 L 197.689 236.133 L 198.519 235.375 L 199.629 234.365 L 198.381 233.228 Z" style=""/>
  <path fill="#b0c4da" d="M 182.028 223.624 L 179.117 220.971 L 182.998 217.433 L 185.907 220.086 C 186.463 220.592 186.463 221.35 185.907 221.856 L 183.968 223.624 C 183.413 224.13 182.582 224.13 182.028 223.624 Z" style=""/>
  <path fill="#99b5ce" d="M 183.413 222.361 L 180.503 219.707 L 179.117 220.971 L 182.028 223.624 C 182.582 224.13 183.413 224.13 183.968 223.624 L 185.353 222.361 C 184.799 222.867 183.968 222.867 183.413 222.361 Z" style=""/>
  <path fill="#ed5c23" d="M 203.509 236.133 C 202.954 235.628 202.954 234.87 203.509 234.365 L 201.568 236.133 L 200.598 237.018 L 197.689 239.671 C 198.242 239.166 199.074 239.166 199.629 239.671 C 200.182 240.177 200.182 240.935 199.629 241.441 L 202.538 238.787 L 203.509 237.903 L 205.449 236.133 C 205.033 236.638 204.064 236.638 203.509 236.133 Z" style=""/>
  <path fill="#f47321" d="M 208.498 249.527 L 199.629 241.441 L 205.449 236.133 L 214.319 244.22 C 215.427 245.231 215.427 246.747 214.319 247.758 L 212.377 249.527 C 211.27 250.537 209.606 250.537 208.498 249.527 Z M 195.719 237.924 L 201.598 232.563 L 203.558 234.351 L 197.678 239.711 L 195.719 237.924 Z" style=""/>
  <path fill="#e55123" d="M 201.845 239.545 C 202.124 239.04 202.124 238.408 201.568 238.029 C 201.014 237.523 200.182 237.523 199.629 238.029 L 202.538 235.375 L 203.231 234.744 C 203.231 234.617 203.369 234.491 203.509 234.491 L 201.568 236.26 L 200.598 237.144 L 197.689 239.798 C 198.242 239.293 199.074 239.293 199.629 239.798 C 200.182 240.303 200.182 241.061 199.629 241.567 L 201.845 239.545 Z" style=""/>
  <path fill="#ed5c23" d="M 210.437 247.884 L 201.568 239.798 L 199.629 241.441 L 208.498 249.527 C 209.606 250.537 211.27 250.537 212.377 249.527 L 213.903 248.137 C 212.793 248.769 211.408 248.643 210.437 247.884 Z M 197.689 236.26 L 201.707 232.596 L 201.568 232.596 L 195.747 237.903 L 197.689 239.671 L 199.629 237.903 L 197.689 236.26 Z" style=""/>
  <path fill="#607d95" d="M 213.764 223.245 L 209.884 226.783 L 206.003 225.899 L 205.033 222.361 L 208.914 218.823 L 206.973 217.054 L 201.845 221.729 L 203.093 225.899 L 196.717 231.711 L 199.629 234.365 L 197.689 236.133 L 194.777 233.48 L 188.541 239.166 L 183.968 238.029 L 178.84 242.704 L 180.78 244.473 L 184.661 240.935 L 188.541 241.819 L 189.511 245.357 L 185.631 248.895 L 187.571 250.665 L 192.698 245.99 L 191.452 241.819 L 206.003 228.553 L 210.576 229.689 L 215.705 225.014 L 213.764 223.245 Z" style=""/>
  <path fill="#4b6c85" d="M 213.764 223.245 L 209.884 226.783 L 206.003 225.899 L 200.598 230.953 C 200.044 231.458 199.212 231.458 198.658 230.953 L 198.104 230.447 L 196.717 231.711 L 198.242 233.101 L 199.629 234.365 L 197.689 236.133 L 196.302 234.87 L 194.777 233.48 L 193.392 234.744 L 193.946 235.249 C 194.5 235.755 194.5 236.512 193.946 237.018 L 188.541 241.819 L 189.511 245.357 L 185.631 248.895 L 187.571 250.665 L 192.698 245.99 L 191.452 241.819 L 199.629 234.365 L 201.014 233.101 L 205.864 228.679 L 210.437 229.816 L 215.705 225.014 L 213.764 223.245 Z" style=""/>
  <path fill="#004463" d="M 210.437 248.39 C 210.299 248.39 210.022 248.39 209.884 248.264 L 203.093 241.946 C 202.816 241.693 202.816 241.313 203.093 241.061 C 203.369 240.808 203.785 240.808 204.064 241.061 L 210.854 247.379 C 211.132 247.632 211.132 248.01 210.854 248.264 C 210.715 248.264 210.576 248.39 210.437 248.39 Z M 212.377 246.621 C 212.239 246.621 211.962 246.621 211.824 246.495 L 205.033 240.177 C 204.756 239.924 204.756 239.545 205.033 239.293 C 205.311 239.04 205.726 239.04 206.003 239.293 L 212.793 245.61 C 213.072 245.862 213.072 246.242 212.793 246.495 C 212.655 246.495 212.517 246.621 212.377 246.621 Z" style=""/>
  <path fill="#004463" d="M 210.437 250.917 C 209.606 250.917 208.637 250.665 207.944 250.032 L 199.074 241.946 C 198.934 241.819 198.934 241.693 198.934 241.441 C 198.934 241.187 199.074 241.061 199.074 240.935 L 204.895 235.628 C 205.171 235.375 205.587 235.375 205.864 235.628 L 214.734 243.715 C 215.427 244.346 215.705 245.105 215.705 245.99 C 215.705 246.873 215.289 247.632 214.734 248.264 L 212.793 250.032 C 212.239 250.537 211.27 250.917 210.437 250.917 Z M 200.598 241.441 L 208.914 249.021 C 209.745 249.78 210.992 249.78 211.824 249.021 L 213.764 247.253 C 214.179 246.873 214.319 246.368 214.319 245.862 C 214.319 245.357 214.041 244.852 213.764 244.473 L 205.449 236.892 L 200.598 241.441 Z M 197.689 236.766 C 197.549 236.766 197.272 236.766 197.133 236.638 L 183.413 224.004 C 183.136 223.878 183.136 223.372 183.413 223.119 L 185.353 221.35 C 185.631 221.097 186.046 221.097 186.324 221.35 L 200.044 233.859 C 200.321 234.111 200.321 234.491 200.044 234.744 L 198.104 236.512 C 197.965 236.638 197.827 236.766 197.689 236.766 Z M 184.938 223.624 L 197.689 235.249 L 198.658 234.365 L 185.907 222.739 L 184.938 223.624 Z" style=""/>
  <path fill="#004463" d="M 187.571 251.296 C 187.433 251.296 187.155 251.296 187.017 251.17 L 185.076 249.4 C 184.799 249.148 184.799 248.769 185.076 248.516 L 188.819 245.231 L 187.986 242.452 L 184.799 241.567 L 181.196 244.852 C 180.918 245.105 180.503 245.105 180.226 244.852 L 178.285 243.083 C 178.147 242.957 178.147 242.83 178.147 242.578 C 178.147 242.324 178.285 242.198 178.285 242.072 L 183.413 237.523 C 183.551 237.397 183.829 237.271 184.106 237.397 L 188.264 238.408 L 194.223 232.974 C 194.5 232.722 194.915 232.722 195.194 232.974 L 197.689 235.249 L 198.658 234.365 L 196.163 232.091 C 195.887 231.837 195.887 231.458 196.163 231.206 L 202.262 225.646 L 201.152 221.856 C 201.152 221.603 201.152 221.35 201.291 221.223 L 206.419 216.548 C 206.697 216.296 207.112 216.296 207.389 216.548 L 209.33 218.318 C 209.606 218.57 209.606 218.949 209.33 219.202 L 205.726 222.487 L 206.557 225.267 L 209.745 226.151 L 213.349 222.867 C 213.625 222.613 214.041 222.613 214.319 222.867 L 216.259 224.635 C 216.397 224.761 216.397 224.888 216.397 225.141 C 216.397 225.394 216.259 225.52 216.259 225.646 L 211.132 230.195 C 210.992 230.321 210.715 230.447 210.437 230.321 L 206.28 229.31 L 192.283 241.946 L 193.392 245.736 C 193.392 245.99 193.392 246.242 193.254 246.368 L 188.125 251.043 C 187.986 251.296 187.848 251.296 187.571 251.296 Z M 186.601 248.895 L 187.571 249.78 L 192.006 245.736 L 190.897 241.946 C 190.897 241.693 190.897 241.441 191.036 241.313 L 196.717 236.133 L 194.777 234.365 L 189.095 239.545 C 188.957 239.671 188.681 239.798 188.402 239.671 L 184.246 238.66 L 179.811 242.704 L 180.78 243.588 L 184.106 240.556 C 184.246 240.43 184.522 240.303 184.799 240.43 L 188.681 241.313 C 188.957 241.313 189.095 241.567 189.234 241.819 L 190.204 245.357 C 190.204 245.61 190.204 245.862 190.066 245.99 L 186.601 248.895 Z M 197.689 231.711 L 199.629 233.48 L 205.449 228.173 C 205.587 228.047 205.864 227.92 206.141 228.047 L 210.299 229.058 L 214.734 225.014 L 213.764 224.13 L 210.437 227.162 C 210.299 227.288 210.022 227.414 209.745 227.288 L 205.864 226.404 C 205.587 226.404 205.449 226.151 205.311 225.899 L 204.34 222.487 C 204.34 222.234 204.34 221.982 204.479 221.856 L 207.804 218.823 L 206.973 217.938 L 202.538 221.982 L 203.647 225.772 C 203.647 226.025 203.647 226.278 203.509 226.404 L 197.689 231.711 Z M 182.998 224.635 C 182.444 224.635 181.889 224.509 181.472 224.13 L 178.563 221.35 C 178.424 221.223 178.424 221.097 178.424 220.971 C 178.424 220.845 178.563 220.592 178.563 220.466 L 182.444 216.927 C 182.582 216.801 182.72 216.801 182.998 216.801 C 183.136 216.801 183.413 216.927 183.551 216.927 L 186.463 219.581 C 186.739 219.96 187.017 220.466 187.017 220.971 C 187.017 221.476 186.739 221.982 186.463 222.361 L 184.384 224.004 C 184.106 224.383 183.551 224.635 182.998 224.635 Z M 180.087 220.971 L 182.582 223.245 C 182.859 223.498 183.274 223.498 183.551 223.245 L 185.491 221.476 C 185.491 221.223 185.631 221.097 185.631 220.971 C 185.631 220.845 185.491 220.592 185.491 220.466 L 182.998 218.318 L 180.087 220.971 Z" style=""/>
  <path fill="#004463" d="M 199.629 242.072 C 199.489 242.072 199.212 242.072 199.074 241.946 C 198.796 241.693 198.796 241.313 199.074 241.061 C 199.212 240.935 199.212 240.808 199.212 240.682 C 199.212 240.556 199.074 240.303 199.074 240.177 C 198.796 239.924 198.381 239.924 198.104 240.177 C 197.827 240.43 197.411 240.43 197.133 240.177 C 196.994 240.05 196.994 239.924 196.994 239.671 C 196.994 239.419 196.994 239.293 197.133 239.166 L 202.954 233.859 C 203.231 233.606 203.647 233.606 203.924 233.859 C 204.064 233.985 204.064 234.111 204.064 234.365 C 204.064 234.617 204.064 234.744 203.924 234.87 C 203.647 235.122 203.647 235.501 203.924 235.755 C 204.202 236.007 204.617 236.007 204.895 235.755 C 205.171 235.501 205.587 235.501 205.864 235.755 C 206.141 236.007 206.141 236.386 205.864 236.638 L 200.044 241.946 C 200.044 242.072 199.767 242.072 199.629 242.072 Z M 199.489 238.913 C 199.629 239.04 199.906 239.166 200.044 239.293 C 200.182 239.419 200.321 239.671 200.46 239.798 L 203.509 237.018 C 203.369 236.892 203.093 236.766 202.954 236.638 C 202.816 236.512 202.677 236.26 202.538 236.133 L 199.489 238.913 Z" style=""/>
  <path fill="#004463" d="M 197.689 240.303 C 197.549 240.303 197.272 240.303 197.133 240.177 L 195.194 238.408 C 194.915 238.155 194.915 237.776 195.194 237.523 L 201.014 232.217 C 201.291 231.963 201.707 231.963 201.984 232.217 L 203.924 233.985 C 204.202 234.238 204.202 234.617 203.924 234.87 L 198.104 240.177 C 197.965 240.303 197.827 240.303 197.689 240.303 Z M 196.717 237.903 L 197.689 238.787 L 202.538 234.365 L 201.568 233.48 L 196.717 237.903 Z" style=""/>
</svg>