<svg xmlns="http://www.w3.org/2000/svg" version="1.1" xmlns:xlink="http://www.w3.org/1999/xlink" xmlns:svgjs="http://svgjs.dev/svgjs" width="1000" height="1000" viewBox="0 0 1000 1000"><rect width="1000" height="1000" fill="#0718c4"></rect><g transform="matrix(0.7,0,0,0.7,149.84897959183667,150.19913061224486)"><svg viewBox="0 0 343 343" data-background-color="#0718c4" preserveAspectRatio="xMidYMid meet" height="999" width="1000" xmlns="http://www.w3.org/2000/svg" xmlns:xlink="http://www.w3.org/1999/xlink"><g id="tight-bounds" transform="matrix(1,0,0,1,0.0740000000000407,0.07400000000001228)"><svg viewBox="0 0 342.85155851775386 342.85155851775386" height="342.85155851775386" width="342.85155851775386"><g><svg></svg></g><g><svg viewBox="0 0 342.85155851775386 342.85155851775386" height="342.85155851775386" width="342.85155851775386"><g><path d="M0 171.426c0-94.676 76.75-171.426 171.426-171.426 94.676 0 171.426 76.75 171.426 171.426 0 94.676-76.75 171.426-171.426 171.426-94.676 0-171.426-76.75-171.426-171.426zM171.426 338.89c92.488 0 167.464-74.976 167.464-167.464 0-92.488-74.976-167.464-167.464-167.464-92.488 0-167.464 74.976-167.464 167.464 0 92.488 74.976 167.464 167.464 167.464z" data-fill-palette-color="tertiary" fill="#ffffff" stroke="transparent"></path><ellipse rx="164.56874808852186" ry="164.56874808852186" cx="171.42577925887693" cy="171.42577925887693" fill="#ffffff" stroke="transparent" stroke-width="0" fill-opacity="1" data-fill-palette-color="tertiary"></ellipse></g><g transform="matrix(1,0,0,1,64.84655864529837,83.93497013713636)"><svg viewBox="0 0 213.1584412271571 174.98161824348114" height="174.98161824348114" width="213.1584412271571"><g><svg viewBox="0 0 213.1584412271571 174.98161824348114" height="174.98161824348114" width="213.1584412271571"><g><svg viewBox="0 0 213.1584412271571 174.98161824348114" height="174.98161824348114" width="213.1584412271571"><g transform="matrix(1,0,0,1,0,105.87545032237699)"><svg viewBox="0 0 213.1584412271571 69.10616792110413" height="69.10616792110413" width="213.1584412271571"><g><svg viewBox="0 0 213.1584412271571 69.10616792110413" height="69.10616792110413" width="213.1584412271571"><g><svg viewBox="0 0 213.1584412271571 43.929608496463295" height="43.929608496463295" width="213.1584412271571"><g transform="matrix(1,0,0,1,0,0)"><svg width="213.1584412271571" viewBox="3.83 -36.04 177.20999999999998 36.53" height="43.929608496463295" data-palette-color="#0718c4"><path d="M3.83-35.55L9.59-35.55 18.87-6.54 28.15-35.55 33.91-35.55 33.91 0 29.44 0 29.44-13.84 29.86-27.71 20.56 0 17.14 0 7.89-27.61 8.3-13.84 8.3 0 3.83 0 3.83-35.55ZM59.08 0L54.59 0Q54.2-0.85 54.03-2.88L54.03-2.88Q51.73 0.49 48.17 0.49L48.17 0.49Q44.58 0.49 42.56-1.53 40.55-3.54 40.55-7.2L40.55-7.2Q40.55-11.23 43.28-13.6 46.02-15.97 50.78-16.02L50.78-16.02 53.95-16.02 53.95-18.82Q53.95-21.19 52.9-22.19 51.85-23.19 49.7-23.19L49.7-23.19Q47.75-23.19 46.53-22.03 45.31-20.87 45.31-19.09L45.31-19.09 40.99-19.09Q40.99-21.12 42.19-22.96 43.38-24.8 45.41-25.85 47.43-26.9 49.92-26.9L49.92-26.9Q53.98-26.9 56.09-24.89 58.2-22.88 58.25-19.02L58.25-19.02 58.25-5.69Q58.27-2.64 59.08-0.39L59.08-0.39 59.08 0ZM48.83-3.44L48.83-3.44Q50.41-3.44 51.85-4.32 53.29-5.2 53.95-6.52L53.95-6.52 53.95-12.82 51.51-12.82Q48.44-12.77 46.65-11.44 44.87-10.11 44.87-7.71L44.87-7.71Q44.87-5.47 45.77-4.46 46.68-3.44 48.83-3.44ZM69.6-26.42L69.6 0 65.28 0 65.28-26.42 69.6-26.42ZM69.94-33.42L69.94-33.42Q69.94-32.32 69.33-31.59 68.72-30.86 67.48-30.86L67.48-30.86Q66.25-30.86 65.64-31.59 65.03-32.32 65.03-33.42 65.03-34.52 65.64-35.28 66.25-36.04 67.48-36.04 68.7-36.04 69.32-35.27 69.94-34.5 69.94-33.42ZM76.38-26.42L80.46-26.42 80.58-23.56Q83.1-26.9 87-26.9L87-26.9Q94.01-26.9 94.11-17.55L94.11-17.55 94.11 0 89.81 0 89.81-17.36Q89.81-20.46 88.77-21.77 87.74-23.07 85.66-23.07L85.66-23.07Q84.05-23.07 82.77-22 81.49-20.92 80.71-19.19L80.71-19.19 80.71 0 76.38 0 76.38-26.42ZM101.94-32.81L106.24-32.81 106.24-26.42 110.22-26.42 110.22-22.92 106.24-22.92 106.24-6.54Q106.24-4.98 106.75-4.17 107.27-3.37 108.51-3.37L108.51-3.37Q109.37-3.37 110.24-3.66L110.24-3.66 110.2 0Q108.73 0.49 107.19 0.49L107.19 0.49Q104.63 0.49 103.29-1.34 101.94-3.17 101.94-6.52L101.94-6.52 101.94-22.92 97.91-22.92 97.91-26.42 101.94-26.42 101.94-32.81ZM124.79 0.49L124.79 0.49Q119.86 0.49 117.22-2.45 114.59-5.4 114.54-11.08L114.54-11.08 114.54-14.28Q114.54-20.19 117.11-23.55 119.69-26.9 124.3-26.9L124.3-26.9Q128.94-26.9 131.24-23.95 133.53-21 133.58-14.75L133.58-14.75 133.58-11.91 118.84-11.91 118.84-11.3Q118.84-7.06 120.43-5.13 122.03-3.2 125.04-3.2L125.04-3.2Q126.94-3.2 128.39-3.92 129.85-4.64 131.12-6.2L131.12-6.2 133.36-3.47Q130.55 0.49 124.79 0.49ZM124.3-23.19L124.3-23.19Q121.62-23.19 120.32-21.35 119.03-19.51 118.86-15.63L118.86-15.63 129.26-15.63 129.26-16.21Q129.09-19.97 127.9-21.58 126.72-23.19 124.3-23.19ZM138.75-26.42L142.83-26.42 142.95-23.56Q145.47-26.9 149.37-26.9L149.37-26.9Q156.38-26.9 156.48-17.55L156.48-17.55 156.48 0 152.18 0 152.18-17.36Q152.18-20.46 151.14-21.77 150.11-23.07 148.03-23.07L148.03-23.07Q146.42-23.07 145.14-22 143.86-20.92 143.08-19.19L143.08-19.19 143.08 0 138.75 0 138.75-26.42ZM181.04 0L176.55 0Q176.15-0.85 175.98-2.88L175.98-2.88Q173.69 0.49 170.12 0.49L170.12 0.49Q166.54 0.49 164.52-1.53 162.51-3.54 162.51-7.2L162.51-7.2Q162.51-11.23 165.24-13.6 167.98-15.97 172.74-16.02L172.74-16.02 175.91-16.02 175.91-18.82Q175.91-21.19 174.86-22.19 173.81-23.19 171.66-23.19L171.66-23.19Q169.71-23.19 168.49-22.03 167.27-20.87 167.27-19.09L167.27-19.09 162.95-19.09Q162.95-21.12 164.14-22.96 165.34-24.8 167.37-25.85 169.39-26.9 171.88-26.9L171.88-26.9Q175.93-26.9 178.05-24.89 180.16-22.88 180.21-19.02L180.21-19.02 180.21-5.69Q180.23-2.64 181.04-0.39L181.04-0.39 181.04 0ZM170.78-3.44L170.78-3.44Q172.37-3.44 173.81-4.32 175.25-5.2 175.91-6.52L175.91-6.52 175.91-12.82 173.47-12.82Q170.39-12.77 168.61-11.44 166.83-10.11 166.83-7.71L166.83-7.71Q166.83-5.47 167.73-4.46 168.63-3.44 170.78-3.44Z" opacity="1" transform="matrix(1,0,0,1,0,0)" fill="#0718c4" class="undefined-text-0" data-fill-palette-color="quaternary" id="text-0"></path></svg></g></svg></g><g transform="matrix(1,0,0,1,0,54.30033475187437)"><svg viewBox="0 0 213.1584412271571 14.805833169229762" height="14.805833169229762" width="213.1584412271571"><g transform="matrix(1,0,0,1,0,0)"><svg width="213.1584412271571" viewBox="1.15 -31.01 456.89000000000004 31.740000000000002" height="14.805833169229762" data-palette-color="#0718c4"><path d="M1.15-27.61L6.13-25.76 6.13-4.52 1.59-2.59 1.25 0 17.36 0 17.63-2.78 12.94-4.44 12.94-25.88 16.7-27.61 17.07-30.37 1.68-30.37 1.15-27.61ZM13.75-14.5L18.48-7.42Q20.09-4.86 21.67-3.13 23.24-1.39 25.16-0.4 27.08 0.59 29.42 0.59L29.42 0.59Q30.27 0.59 31.6 0.42 32.93 0.24 33.72-0.05L33.72-0.05 34.2-2.49 33.47-2.71Q31.74-3.17 30.46-4.03 29.17-4.88 27.97-6.24 26.76-7.59 24.51-10.45L24.51-10.45 19.8-16.33 27.2-25.88 32.1-27.61 32.59-30.37 20.24-30.37 19.8-27.47 21.53-25.93 16.43-18.77Q15.97-18.14 15.15-17.19 14.33-16.24 13.79-15.63L13.79-15.63 13.75-14.5ZM36.57-27.69L41.11-26.32 41.11-4.13 37.08-2.59 36.84 0 63.79 0 64.52-8.84 61.5-9.2 58.52-3.69 48.04-3.69 48.04-13.72 53.34-13.72 54.15-9.59 57.54-10.16 58.37-20.51 54.86-19.85 53.78-16.7 48.04-16.7 48.04-27.15 57.98-27.15 59.49-21.83 62.64-21.36 63.4-30.37 36.94-30.37 36.57-27.69ZM66.74-27.69L71.28-26.32 71.28-4.13 67.26-2.59 67.01 0 93.96 0 94.7-8.84 91.67-9.2 88.69-3.69 78.22-3.69 78.22-13.72 83.52-13.72 84.32-9.59 87.71-10.16 88.54-20.51 85.03-19.85 83.95-16.7 78.22-16.7 78.22-27.15 88.15-27.15 89.67-21.83 92.82-21.36 93.57-30.37 67.11-30.37 66.74-27.69ZM113.64 0L114.08-2.93 108.27-4.35 108.27-27Q108.61-27.05 109.22-27.11 109.83-27.17 110.32-27.17L110.32-27.17Q113.44-27.17 115.01-25.37 116.57-23.56 116.57-20.7L116.57-20.7Q116.57-17.9 114.91-16.33 113.25-14.77 109.98-14.72L109.98-14.72 109.1-14.7 109.68-11.57Q111.15-11.47 111.91-11.47L111.91-11.47Q115.18-11.47 117.85-12.83 120.52-14.18 122.06-16.53 123.6-18.87 123.6-21.73L123.6-21.73Q123.6-26.76 120.33-28.77 117.06-30.79 111.2-30.79L111.2-30.79Q107.61-30.79 104.52-30.47 101.43-30.15 97.48-29.57L97.48-29.57 97.18-26.68 101.58-25.78 101.58-4.13 97.28-2.59 96.87 0 113.64 0ZM125.82-27.61L130.34-26.2 130.34-4.17 126.14-2.64 125.94 0 141.27 0 141.57-2.93 137.15-4.1 137.15-26.22 141.4-27.49 141.71-30.37 126.19-30.37 125.82-27.61ZM144.3-27.54L148.67-25.88 148.67-4.13 144.57-2.59 144.32 0 157.21 0 157.51-2.78 153.09-3.96 153.09-19.29 167.44 0.73 172.77-0.2 172.77-26.32 176.84-27.61 177.33-30.37 164.49-30.37 164.05-27.61 168.59-26.2 168.59-9.81 154.26-30.37 144.62-30.37 144.3-27.54ZM195.81 0.68Q199.08 0.68 202.48-0.1 205.87-0.88 207.85-2.1L207.85-2.1 207.85-9.79 210.63-11.18 211.04-13.99 196.2-13.99 195.79-10.89 201.35-9.62 201.35-4.32Q200.57-3.78 199.46-3.45 198.35-3.13 197.01-3.13L197.01-3.13Q193.98-3.13 191.73-4.88 189.49-6.64 188.29-9.67 187.09-12.7 187.09-16.41L187.09-16.41Q187.09-20.21 188.21-22.68 189.32-25.15 191.22-26.29 193.12-27.44 195.59-27.44L195.59-27.44Q197.98-27.44 199.79-26.65 201.6-25.85 202.72-24.73L202.72-24.73 203.65-19.73 207.02-19.38 207.8-28.66Q205.45-29.71 202.95-30.31 200.45-30.91 196.79-30.91L196.79-30.91Q192.37-30.91 188.39-28.89 184.41-26.88 181.94-23.07 179.48-19.26 179.48-14.14L179.48-14.14Q179.48-9.59 181.3-6.26 183.11-2.93 186.78-1.12 190.44 0.68 195.81 0.68L195.81 0.68ZM225.44-27.54L228.76-26.27 237.06-12.06 237.06-4.13 233.31-2.59 232.96 0 247.71 0 248-2.69 243.95-4.1 243.95-12.55 252.03-26.32 254.94-27.54 255.38-30.37 244.15-30.37 243.75-27.54 247.17-26.27 242.12-16.85 236.92-26.34 239.75-27.54 240.24-30.37 225.98-30.37 225.44-27.54ZM272.46 0.66Q277.57 0.66 281.4-1.32 285.23-3.3 287.31-6.85 289.38-10.4 289.38-15.04L289.38-15.04Q289.38-20.07 287.56-23.66 285.74-27.25 282.31-29.13 278.88-31.01 274.17-31.01L274.17-31.01Q268.97-31.01 265.22-29.02 261.48-27.03 259.52-23.43 257.57-19.82 257.57-15.11L257.57-15.11Q257.57-10.5 259.24-6.93 260.92-3.37 264.27-1.35 267.63 0.66 272.46 0.66L272.46 0.66ZM273-27.71Q276.05-27.71 277.96-25.51 279.86-23.32 280.68-20.18 281.5-17.04 281.5-13.99L281.5-13.99Q281.5-2.95 273.71-2.95L273.71-2.95Q270.71-2.95 268.81-5.08 266.92-7.2 266.1-10.3 265.29-13.4 265.29-16.46L265.29-16.46Q265.29-21.73 267.04-24.72 268.8-27.71 273-27.71L273-27.71ZM296.09-26.2L296.09-11.62Q296.09-6.47 298.06-3.76 300.02-1.05 302.87-0.2 305.71 0.66 309.25 0.66L309.25 0.66Q315.84 0.66 319.12-2.75 322.39-6.15 322.46-13.18L322.46-13.18 322.56-26.32 326.61-27.61 326.95-30.37 313.96-30.37 313.62-27.61 317.99-26.2 317.97-12.45Q317.97-8.23 316.09-6.18 314.21-4.13 310.84-4.13L310.84-4.13Q307.18-4.13 305.08-6.26 302.98-8.4 302.98-12.84L302.98-12.84 302.98-26.32 307.08-27.61 307.45-30.37 292.04-30.37 291.53-27.61 296.09-26.2ZM351.26 0.59Q354 0.59 356.81-0.48 359.61-1.54 361.49-3.7 363.37-5.86 363.37-8.98L363.37-8.98Q363.37-11.52 362.09-13.33 360.81-15.14 359.03-16.26 357.25-17.38 354.36-18.75L354.36-18.75Q352.22-19.75 351.02-20.45 349.82-21.14 349.02-22.08 348.21-23.02 348.21-24.22L348.21-24.22Q348.21-25.9 349.18-26.82 350.14-27.73 351.73-27.73L351.73-27.73Q353.12-27.73 354.47-27.01 355.83-26.29 356.42-25.34L356.42-25.34 357.2-21.29 360.52-20.75Q360.61-21.92 360.88-25.15 361.15-28.37 361.15-28.61L361.15-28.61Q360-29.64 357.72-30.3 355.44-30.96 353.39-30.96L353.39-30.96Q350.48-30.96 347.88-29.9 345.28-28.83 343.66-26.72 342.04-24.61 342.04-21.63L342.04-21.63Q342.04-19.07 343.27-17.27 344.5-15.48 346.2-14.4 347.89-13.33 350.65-12.01L350.65-12.01Q352.61-11.08 353.72-10.44 354.83-9.79 355.57-8.92 356.32-8.06 356.32-6.93L356.32-6.93Q356.32-5.76 355.7-4.91 355.07-4.05 354.05-3.6 353.02-3.15 351.87-3.15L351.87-3.15Q350.26-3.15 348.8-3.85 347.33-4.54 346.6-5.62L346.6-5.62 345.62-10.18 342.21-10.69 341.64-3.03Q342.77-1.46 345.37-0.44 347.97 0.59 351.26 0.59L351.26 0.59ZM365.52 0L378.61 0 378.92-2.78 374.36-4.44 376.16-9.57 386.05-9.57 387.86-4.49 383.73-2.56 383.39 0.02 398.53 0.02 398.8-2.73 395.3-4.42 385.78-30.98 379.73-29.81 369.62-4.52 365.86-2.59 365.52 0ZM377.48-13.38L381.27-24.02 384.83-13.38 377.48-13.38ZM401.19-27.69L405.75-26.32 405.75-4.13 401.75-2.59 401.45 0 417.93 0 418.3-2.76 412.68-4.25 412.68-12.35 418.03-12.35 418.81-7.96 422.11-8.64 423.09-19.53 419.5-18.8 418.37-15.58 412.68-15.58 412.68-27.15 422.45-27.15 423.6-21.92 426.7-21.44 427.92-30.37 401.55-30.37 401.19-27.69ZM430.09-27.69L434.63-26.32 434.63-4.13 430.6-2.59 430.36 0 457.31 0 458.04-8.84 455.02-9.2 452.04-3.69 441.56-3.69 441.56-13.72 446.86-13.72 447.67-9.59 451.06-10.16 451.89-20.51 448.38-19.85 447.3-16.7 441.56-16.7 441.56-27.15 451.5-27.15 453.01-21.83 456.16-21.36 456.92-30.37 430.46-30.37 430.09-27.69Z" opacity="1" transform="matrix(1,0,0,1,0,0)" fill="#0718c4" class="undefined-text-1" data-fill-palette-color="quaternary" id="text-1"></path></svg></g></svg></g></svg></g></svg></g><g transform="matrix(1,0,0,1,65.22348733718192,0)"><svg viewBox="0 0 82.71146655279325 95.50472406696592" height="95.50472406696592" width="82.71146655279325"><g><svg xmlns="http://www.w3.org/2000/svg" xmlns:xlink="http://www.w3.org/1999/xlink" version="1.1" x="0" y="0" viewBox="9.547 3.29 80.906 93.41999999999999" enable-background="new 0 0 100 100" xml:space="preserve" height="95.50472406696592" width="82.71146655279325" class="icon-icon-0" data-fill-palette-color="quaternary" id="icon-0"><g fill="#0718c4" data-fill-palette-color="quaternary"><path d="M31.112 39.094v21.812L49.999 71.81l18.89-10.903V39.094l-18.89-10.905L31.112 39.094zM60.925 56.308l-10.926 6.307-10.924-6.307V43.692l10.924-6.308 10.926 6.308V56.308z" fill="#0718c4" data-fill-palette-color="quaternary"></path><path d="M49.999 3.29L9.547 26.646v46.709L49.999 96.71l40.454-23.355V26.646L49.999 3.29zM82.19 68.584L49.999 87.169 17.811 68.584v-37.17l32.188-18.585L82.19 31.414V68.584z" fill="#0718c4" data-fill-palette-color="quaternary"></path><path d="M20.368 32.89v34.218l29.631 17.108 29.634-17.108V32.89L49.999 15.782 20.368 32.89zM71.446 62.383l-21.447 12.38-21.444-12.38V37.618l21.444-12.382 21.447 12.382V62.383z" fill="#0718c4" data-fill-palette-color="quaternary"></path></g></svg></g></svg></g><g></g></svg></g></svg></g></svg></g></svg></g><defs></defs></svg><rect width="342.85155851775386" height="342.85155851775386" fill="none" stroke="none" visibility="hidden"></rect></g></svg></g></svg>